<mxfile modified="2022-11-10T09:17:20.595Z" host="app.diagrams.net" agent="5.0 (Windows NT 10.0; Win64; x64) AppleWebKit/537.36 (KHTML, like Gecko) Chrome/107.0.0.0 Safari/537.36" etag="CZ6PfIZL07t62iPpSQ2y" version="20.5.3" type="github">
  <diagram id="WI9T0HZ2pTsCkuznbFz-" name="Page-1">
    <mxGraphModel dx="1157" dy="2914" grid="1" gridSize="10" guides="1" tooltips="1" connect="1" arrows="1" fold="1" page="1" pageScale="1" pageWidth="827" pageHeight="1169" math="0" shadow="0">
      <root>
        <mxCell id="0" />
        <mxCell id="1" parent="0" />
        <mxCell id="oLDCRv-mCkKeXU4i5kK5-1" value="PRE-PROD" style="swimlane;whiteSpace=wrap;html=1;" vertex="1" parent="1">
          <mxGeometry x="390" y="-840" width="200" height="110" as="geometry" />
        </mxCell>
        <mxCell id="oLDCRv-mCkKeXU4i5kK5-36" style="edgeStyle=none;rounded=0;orthogonalLoop=1;jettySize=auto;html=1;entryX=0;entryY=0.5;entryDx=0;entryDy=0;entryPerimeter=0;" edge="1" parent="1" source="oLDCRv-mCkKeXU4i5kK5-2" target="oLDCRv-mCkKeXU4i5kK5-15">
          <mxGeometry relative="1" as="geometry" />
        </mxCell>
        <mxCell id="oLDCRv-mCkKeXU4i5kK5-37" style="edgeStyle=none;rounded=0;orthogonalLoop=1;jettySize=auto;html=1;" edge="1" parent="1" source="oLDCRv-mCkKeXU4i5kK5-2" target="oLDCRv-mCkKeXU4i5kK5-22">
          <mxGeometry relative="1" as="geometry" />
        </mxCell>
        <mxCell id="oLDCRv-mCkKeXU4i5kK5-2" value="SIT" style="swimlane;whiteSpace=wrap;html=1;fillColor=#fff2cc;strokeColor=#d6b656;" vertex="1" parent="1">
          <mxGeometry x="390" y="-1110" width="200" height="100" as="geometry" />
        </mxCell>
        <mxCell id="oLDCRv-mCkKeXU4i5kK5-3" value="UAT" style="swimlane;whiteSpace=wrap;html=1;fillColor=#dae8fc;strokeColor=#6c8ebf;" vertex="1" parent="1">
          <mxGeometry x="390" y="-990" width="200" height="120" as="geometry" />
        </mxCell>
        <mxCell id="oLDCRv-mCkKeXU4i5kK5-7" style="edgeStyle=none;rounded=0;orthogonalLoop=1;jettySize=auto;html=1;entryX=0;entryY=0.5;entryDx=0;entryDy=0;exitX=1;exitY=0.5;exitDx=0;exitDy=0;" edge="1" parent="1" source="oLDCRv-mCkKeXU4i5kK5-5" target="oLDCRv-mCkKeXU4i5kK5-2">
          <mxGeometry relative="1" as="geometry">
            <mxPoint x="390" y="-1110" as="targetPoint" />
          </mxGeometry>
        </mxCell>
        <mxCell id="oLDCRv-mCkKeXU4i5kK5-8" style="edgeStyle=none;rounded=0;orthogonalLoop=1;jettySize=auto;html=1;exitX=1;exitY=0.5;exitDx=0;exitDy=0;" edge="1" parent="1" source="oLDCRv-mCkKeXU4i5kK5-5">
          <mxGeometry relative="1" as="geometry">
            <mxPoint x="390" y="-930" as="targetPoint" />
          </mxGeometry>
        </mxCell>
        <mxCell id="oLDCRv-mCkKeXU4i5kK5-9" style="edgeStyle=none;rounded=0;orthogonalLoop=1;jettySize=auto;html=1;entryX=0;entryY=0.5;entryDx=0;entryDy=0;exitX=1;exitY=0.5;exitDx=0;exitDy=0;" edge="1" parent="1" source="oLDCRv-mCkKeXU4i5kK5-5" target="oLDCRv-mCkKeXU4i5kK5-1">
          <mxGeometry relative="1" as="geometry" />
        </mxCell>
        <mxCell id="oLDCRv-mCkKeXU4i5kK5-14" style="edgeStyle=none;rounded=0;orthogonalLoop=1;jettySize=auto;html=1;entryX=0;entryY=0.5;entryDx=0;entryDy=0;exitX=1;exitY=0.5;exitDx=0;exitDy=0;" edge="1" parent="1" source="oLDCRv-mCkKeXU4i5kK5-5" target="oLDCRv-mCkKeXU4i5kK5-13">
          <mxGeometry relative="1" as="geometry" />
        </mxCell>
        <mxCell id="oLDCRv-mCkKeXU4i5kK5-5" value="DevSecOps" style="swimlane;whiteSpace=wrap;html=1;" vertex="1" parent="1">
          <mxGeometry x="60" y="-970" width="200" height="200" as="geometry" />
        </mxCell>
        <mxCell id="oLDCRv-mCkKeXU4i5kK5-11" style="edgeStyle=none;rounded=0;orthogonalLoop=1;jettySize=auto;html=1;entryX=0;entryY=0.5;entryDx=0;entryDy=0;" edge="1" parent="oLDCRv-mCkKeXU4i5kK5-5" source="oLDCRv-mCkKeXU4i5kK5-6" target="oLDCRv-mCkKeXU4i5kK5-10">
          <mxGeometry relative="1" as="geometry" />
        </mxCell>
        <mxCell id="oLDCRv-mCkKeXU4i5kK5-6" value="Jenkins" style="shape=image;verticalLabelPosition=bottom;labelBackgroundColor=none;verticalAlign=top;aspect=fixed;imageAspect=0;image=data:image/svg+xml,PHN2ZyB4bWxuczpjYz0iaHR0cDovL2NyZWF0aXZlY29tbW9ucy5vcmcvbnMjIiB4bWxuczpkYz0iaHR0cDovL3B1cmwub3JnL2RjL2VsZW1lbnRzLzEuMS8iIHhtbG5zOmlua3NjYXBlPSJodHRwOi8vd3d3Lmlua3NjYXBlLm9yZy9uYW1lc3BhY2VzL2lua3NjYXBlIiB4bWxuczpyZGY9Imh0dHA6Ly93d3cudzMub3JnLzE5OTkvMDIvMjItcmRmLXN5bnRheC1ucyMiIHhtbG5zOnNvZGlwb2RpPSJodHRwOi8vc29kaXBvZGkuc291cmNlZm9yZ2UubmV0L0RURC9zb2RpcG9kaS0wLmR0ZCIgeG1sbnM6c3ZnPSJodHRwOi8vd3d3LnczLm9yZy8yMDAwL3N2ZyIgeG1sbnM9Imh0dHA6Ly93d3cudzMub3JnLzIwMDAvc3ZnIiB4bWxuczp4bGluaz0iaHR0cDovL3d3dy53My5vcmcvMTk5OS94bGluayIgdmVyc2lvbj0iMS4xIiBpZD0ic3ZnMjQ4MSIgaW5rc2NhcGU6dmVyc2lvbj0iMC45Mi4zICgyNDA1NTQ2LCAyMDE4LTAzLTExKSIgc29kaXBvZGk6ZG9jbmFtZT0iamVua2lucy5zdmciIHg9IjBweCIgeT0iMHB4IiB2aWV3Qm94PSIwIDAgNDMuMzkgNDcuODIiIHN0eWxlPSJlbmFibGUtYmFja2dyb3VuZDpuZXcgMCAwIDQzLjM5IDQ3LjgyOyIgeG1sOnNwYWNlPSJwcmVzZXJ2ZSI+JiN4YTs8c29kaXBvZGk6bmFtZWR2aWV3IGJvcmRlcmNvbG9yPSIjNjY2NjY2IiBib3JkZXJvcGFjaXR5PSIxIiBmaXQtbWFyZ2luLWJvdHRvbT0iMCIgZml0LW1hcmdpbi1sZWZ0PSIwIiBmaXQtbWFyZ2luLXJpZ2h0PSIwIiBmaXQtbWFyZ2luLXRvcD0iMCIgZ3JpZHRvbGVyYW5jZT0iMTAiIGd1aWRldG9sZXJhbmNlPSIxMCIgaWQ9Im5hbWVkdmlldzI0ODMiIGlua3NjYXBlOmN1cnJlbnQtbGF5ZXI9InN2ZzI0ODEiIGlua3NjYXBlOmN4PSIzOC45MDIzMDgiIGlua3NjYXBlOmN5PSI5LjMxNTMxNyIgaW5rc2NhcGU6cGFnZW9wYWNpdHk9IjAiIGlua3NjYXBlOnBhZ2VzaGFkb3c9IjIiIGlua3NjYXBlOndpbmRvdy1oZWlnaHQ9IjEwMTciIGlua3NjYXBlOndpbmRvdy1tYXhpbWl6ZWQ9IjEiIGlua3NjYXBlOndpbmRvdy13aWR0aD0iMTkyMCIgaW5rc2NhcGU6d2luZG93LXg9Ii04IiBpbmtzY2FwZTp3aW5kb3cteT0iLTgiIGlua3NjYXBlOnpvb209IjYuNTkyNzExNCIgb2JqZWN0dG9sZXJhbmNlPSIxMCIgcGFnZWNvbG9yPSIjZmZmZmZmIiBzaG93Z3JpZD0iZmFsc2UiPiYjeGE7CTwvc29kaXBvZGk6bmFtZWR2aWV3PiYjeGE7PGcgaWQ9ImcyNDc5IiB0cmFuc2Zvcm09InRyYW5zbGF0ZSgtMC43NSwtMC43NTA5OTM0NSkiPiYjeGE7CTx0aXRsZSBpZD0idGl0bGUyMzExIj5QYWdlLTE8L3RpdGxlPiYjeGE7CTxnIGlkPSJncm91cDE2NDEtMSIgdHJhbnNmb3JtPSJ0cmFuc2xhdGUoMC43NSwtMC43NSkiPiYjeGE7CQk8dGl0bGUgaWQ9InRpdGxlMjMxMyI+SmVua2luczwvdGl0bGU+JiN4YTsJCTxnIGlkPSJncm91cDE2NDItMiI+JiN4YTsJCQk8dGl0bGUgaWQ9InRpdGxlMjMxNSI+ZzE0NTI0PC90aXRsZT4mI3hhOwkJCTxnIGlkPSJzaGFwZTE2NDMtMyI+JiN4YTsJCQkJPHRpdGxlIGlkPSJ0aXRsZTIzMTciPnBhdGgxNDQ2MDwvdGl0bGU+JiN4YTsJCQkJPHBhdGggaWQ9InBhdGgyMzE5IiBpbmtzY2FwZTpjb25uZWN0b3ItY3VydmF0dXJlPSIwIiBzdHlsZT0iZmlsbDojMjgyNDI1OyIgZD0iTTQwLjY2LDM4LjEyYy0wLjcxLTAuNzUtMS41LTEuMzctMi4yNS0yLjA1ICAgICAgYy0wLjU3LTAuNDItMC43MS0xLjIyLTAuMzEtMS44MWMzLjM5LTYuMjYsMy44LTEyLjk4LDIuODYtMTkuODZjLTAuOTMtNi40Ny03LTEyLjQtMTMuNjgtMTIuODVjLTEuODgtMC4wOS0zLjc3LTAuMDUtNS42NSwwLjExICAgICAgYy00LjIyLDAuNzUtNy44OCwyLjY5LTExLjM4LDVDOC45Niw3LjQ5LDgsOC43NCw3LjUxLDEwLjE5Yy0wLjA4LDAuMjItMC4xOCwwLjUyLTAuMzUsMC42M2MtMS44NywxLjA2LTIuMzcsMi44Ni0yLjU2LDQuNzUgICAgICBjLTAuMDcsMS4wOC0wLjA1LDIuMTYsMC4wNywzLjIzYzAuMDgsMC42OS0wLjA1LDEuMzktMC4zNiwyLjAyYy0xLjAzLDIuMTYtMC42OSw0LjM1LDAuMTYsNi40OGMwLjYxLDEuOCwyLjA3LDMuMTcsMy45LDMuNjcgICAgICBjMC4yNiwwLjExLDAuNDYsMC4zMywwLjU2LDAuNTljMC40NywxLjEzLDAuODMsMi4zMSwxLjM1LDMuNDJjMC41MywxLjExLDAuNTYsMS41NS0wLjYxLDIuMjVjLTIuOCwxLjczLTUuNjQsMy4zOS04LjQ3LDUuMDkgICAgICBjLTAuNDMsMC4zMi0wLjg0LDAuNjktMS4yLDEuMDl2MS4xMmMwLjUyLDEuNDgsMS4yLDMuMjksMS43Miw0Ljc5aDM5LjQyYzAuNzUtMi4zNiwxLjUtNS4wNCwyLjI1LTcuNHYtMC43NSAgICAgIEM0Mi40NSw0MC4xNSw0MS42MSwzOS4xLDQwLjY2LDM4LjEyeiBNMzAuMjksNDMuNjRjMC4wNywwLjU4LTAuMzUsMS4xMS0wLjkzLDEuMTdjLTAuMDMsMC0wLjA2LDAuMDEtMC4wOSwwLjAxICAgICAgYy0wLjU3LDAuMDYtMC44Ny0wLjQ3LTAuODktMS43N2MwLjI2LTAuMjIsMC41Ni0wLjM4LDAuODgtMC40OEMyOS45Miw0Mi41NywzMC4yNyw0My4wMiwzMC4yOSw0My42NHoiLz4mI3hhOwkJCTwvZz4mI3hhOwkJCTxnIGlkPSJzaGFwZTE2NDQtNSIgdHJhbnNmb3JtPSJ0cmFuc2xhdGUoNS43LC04LjA0NzUpIj4mI3hhOwkJCQk8dGl0bGUgaWQ9InRpdGxlMjMyMiI+cGF0aDE0NDYyPC90aXRsZT4mI3hhOwkJCQk8cGF0aCBpZD0icGF0aDIzMjQiIGlua3NjYXBlOmNvbm5lY3Rvci1jdXJ2YXR1cmU9IjAiIHN0eWxlPSJmaWxsOiNFRUQ0QjU7IiBkPSJNMjguNzUsMTkuODNjMC43My0wLjIsMS40OS0wLjI5LDIuMjUtMC4yNiAgICAgIGMxLjY0LDAuMjMsMi45MiwxLjUyLDMuMTMsMy4xNmMxLjE1LDcuNTYsMC42OCwxNC45Mi00LjQ2LDIxYy0zLjEzLDMuNzUtOS4yMSw1LjU5LTE0LjMzLDEuMDVjLTEuMjctMS4yNy0yLjQ2LTIuNjEtMy41Ni00LjAzICAgICAgYy0wLjIxLTAuMjUtMC40MS0wLjUtMC43NS0wLjkxYzAuMzksMi4yNSwyLjE4LDQuNSw1LjQsNy4wNmMtMC44MiwwLjQtMS42OSwwLjctMi41OSwwLjljLTEuMy0wLjAyLTIuNTktMC4xNC0zLjg3LTAuMzggICAgICBDNy4zLDQ0LjU3LDYuOSw0MS4yNSw2LjU4LDM3LjM4YzAtMC4zNi0wLjQ2LTAuNjktMC43LTEuMDRjLTAuMzgsMC4wNS0wLjc1LDAuMTUtMS4xLDAuM2MtMS41NiwwLjk4LTIuNzcsMC43NS0zLjkyLTAuODIgICAgICBMMC42NywzNS42TDAsMzQuNzdjMC4wOC0wLjI0LDAuMDQtMS4zNiwwLjA4LTEuNjJjMC4xNC0xLjA4LDAuOC0wLjc1LDAuOTItMS44N2wwLjkzLTAuMzdjLTAuMzYsMi4xMi0wLjI4LDIuODQsMC4zNCwzLjU1ICAgICAgYzAuMDEtMC42OCwwLjA2LTEuMzYsMC4xNS0yLjAzYzAuMDctMC4zMywwLjQtMC42MywwLjYxLTAuOTRjMC4zMSwwLjE5LDAuNjEsMC40MiwwLjg3LDAuNjhjMC4yOCwwLjQxLDAuNTMsMC44NCwwLjc1LDEuMjggICAgICBjMC4yNi0xLjI5LTAuNjUtMy4xNi0xLjI3LTMuOTdjMC4zNywwLDEuMjUsMS4wMywxLjYxLDEuMDRsMC4wOCwwLjI2bDAuMzQsMC45NWMwLjI3LDAsMC4yNSwwLjEzLDAuNTUsMC4xMiAgICAgIGMxLjM4LTAuMDksMi4wNi0wLjYsMS43My0xLjg5Yy0wLjk0LTMuOC0wLjA1LTcuNC0wLjE5LTguOWMwLjI4LTAuNDMsMC43LTIuMjksMC45NC0yLjc1YzEuMzEtMi41NSwzLjM4LTMuOCw2LTUuMDQgICAgICBjMy43NS0xLjc4LDYuMzUtMS4yOCwxMC40MS0wLjYzYzAuMzQsMC4wNSwyLjMsMC44MywyLjY1LDAuODZjMS40MSwxLjIxLDIuNzIsMi41MiwzLjkzLDMuOTNjLTEuMjcsMC4yMy0xLjk2LTAuNTMtMi4yNSwwLjc1ICAgICAgQzI5LjAzLDE4LjY2LDI4LjE0LDE5Ljc0LDI4Ljc1LDE5LjgzeiBNMzEuODksMjQuMzNjLTAuMjEsMC4wNCwwLjcxLDIuMzcsMC44OCwyLjc3bC0xLjM2LDAuMjJsLTEuMzUsMC4xOWwtMC4xNywwLjI3ICAgICAgYzAuMzMsMC4zMywwLjYxLDAuOCwxLjAxLDAuOTZjMC43NSwwLjMzLDIuMzMtMC4yNSwyLjg1LTAuOTRjMC4xLTAuMTQsMC4yMy0wLjM4LDAuMTgtMC40OGMtMC42Mi0xLjI0LTEuMjctMi40NS0xLjk4LTMuODMgICAgICBMMzEuODksMjQuMzN6IE0xMi41NiwyMi42MmwwLjQxLDAuNzVjMC4wOC0wLjA3LDAuMTYtMC4xNCwwLjIzLTAuMjJjMC4wNS0wLjA4LDAuMDktMC4xNiwwLjEzLTAuMjRjMC45Mi0xLjg0LDIuMjUtMyw0LjQ1LTIuNzIgICAgICBjMC43NSwwLjA5LDAuNjEtMC40NiwwLjM2LTAuODRjLTAuMjItMC4yNS0wLjQ3LTAuNDgtMC43NS0wLjY2QzE1LjA2LDE3LjM0LDExLjk0LDIxLjk5LDEyLjU2LDIyLjYyeiBNMjAuMzksMjYuODlMMjEsMjcuNzUgICAgICBjLTEuMTYsMC43NS0yLjMzLDAuMDYtMy40MywwLjE1Yy0wLjM1LDAuNzUtMC4wOSwxLjI4LDAuNTgsMS4zOWMwLjkyLDAuMiwxLjg4LDAuMjMsMi44MSwwLjA4YzEuMjktMC4yOCwxLjUtMS41LDAuNjQtMi40OSAgICAgIGMtMC4zNi0wLjM4LTAuNjgtMC43OS0wLjk2LTEuMjNjLTAuMzQtMC41OC0wLjU5LTEuMjItMC45NS0xLjk1bC0wLjE4LDAuNmMtMC42MywwLjIzLDAuMjUsMi42NSwwLjg5LDIuNTlMMjAuMzksMjYuODl6ICAgICAgIE0yOC4wOSw0MS42MWMtMS42MSwwLTMuMDMsMC4wOC00LjQ0LDBjLTEuNzgtMC4xMS0zLjQzLTAuNTctNC40MS0yLjI5Yy0wLjA5LTAuMTctMC41Mi0wLjE0LTAuOTQtMC4yMyAgICAgIGMxLjU4LDIuNTIsMy4xNyw0LjU2LDYuMzEsNC4wNkMyNS44Myw0Mi45MiwyNy4xOSw0My4xMSwyOC4wOSw0MS42MXogTTI2LjkxLDM4LjQ1bC03LjM1LTAuNzVjMi4wMSwyLjI1LDQuNjQsMi4zMyw3LjM1LDIuNDMgICAgICBWMzguNDV6IE0yNy42NiwzOS44OGMyLjE0LDAsNC4wNC0xLjM5LDQuNjktMy40M2wtNC42OSwxLjlMMjcuNjYsMzkuODh6Ii8+JiN4YTsJCQk8L2c+JiN4YTsJCQk8ZyBpZD0ic2hhcGUxNjQ1LTciIHRyYW5zZm9ybT0idHJhbnNsYXRlKDQuNDU1LC0xLjU5KSI+JiN4YTsJCQkJPHRpdGxlIGlkPSJ0aXRsZTIzMjciPnBhdGgxNDQ2NDwvdGl0bGU+JiN4YTsJCQkJPHBhdGggaWQ9InBhdGgyMzI5IiBpbmtzY2FwZTpjb25uZWN0b3ItY3VydmF0dXJlPSIwIiBzdHlsZT0iZmlsbDojMzM1MDYxOyIgZD0iTTE1LjQ5LDQ5LjMySDAuNjEgICAgICBjLTAuMTQtMC44Mi0wLjIyLTEuNjYtMC40NS0yLjQ2Yy0wLjE2LTAuNTksMC0wLjg0LDAuNTQtMS4wNWMyLjAxLTAuODcsNC4wMi0xLjc2LDYtMi42N2MwLjc1LTAuMzMsMS40LTAuNzUsMi4xLTEuMTIgICAgICBjMS4zOSwwLjg4LDIuNzUsMS44Myw0LjIsMi42YzAuOTMsMC41LDEuNzcsMC44NCwxLjgzLDIuMTJDMTQuOTYsNDcuNjIsMTUuMTgsNDguNDksMTUuNDksNDkuMzJ6Ii8+JiN4YTsJCQk8L2c+JiN4YTsJCQk8ZyBpZD0ic2hhcGUxNjQ2LTkiIHRyYW5zZm9ybT0idHJhbnNsYXRlKDEzLjExNzUsLTM1LjI1KSI+JiN4YTsJCQkJPHRpdGxlIGlkPSJ0aXRsZTIzMzIiPnBhdGgxNDQ2NjwvdGl0bGU+JiN4YTsJCQkJPHBhdGggaWQ9InBhdGgyMzM0IiBpbmtzY2FwZTpjb25uZWN0b3ItY3VydmF0dXJlPSIwIiBzdHlsZT0iZmlsbDojRjNFMUNBOyIgZD0iTTIwLjAzLDQwLjcxYy0wLjM1LDAtMC43LDAtMS4wNi0wLjA5ICAgICAgQzE1LDM5Ljg1LDEwLjg5LDQwLjMzLDcuMjEsNDJjLTIuNTMsMS4yMy00LjU4LDMuMjgtNS44LDUuODJjLTAuMjMsMC40NS0xLjA0LDEuMTEtMS4zMywxLjVjLTAuMDgtMC45OCwwLjA1LTIuMDMsMC0zICAgICAgYzAuMDQtMC40MSwwLjE4LTAuOCwwLjQxLTEuMTRjMC40OS0wLjc4LDEuMDYtMS41MSwxLjcxLTIuMTdjMi4xNC0xLjk1LDQuNS0zLjcxLDcuMzUtNC4zNCAgICAgIEMxMy4yNywzNy44NSwxNi43NiwzOC44NiwyMC4wMyw0MC43MXoiLz4mI3hhOwkJCTwvZz4mI3hhOwkJCTxnIGlkPSJzaGFwZTE2NDctMTEiIHRyYW5zZm9ybT0idHJhbnNsYXRlKDYuNTk0MDUsLTI2Ljk3NzUpIj4mI3hhOwkJCQk8dGl0bGUgaWQ9InRpdGxlMjMzNyI+cGF0aDE0NDY4PC90aXRsZT4mI3hhOwkJCQk8cGF0aCBpZD0icGF0aDIzMzkiIGlua3NjYXBlOmNvbm5lY3Rvci1jdXJ2YXR1cmU9IjAiIHN0eWxlPSJmaWxsOiM2RDZCNkQ7IiBkPSJNNS45LDM4Ljc2YzAuMDcsMS4yNiwwLjA1LDIuNTItMC4wNCwzLjc4ICAgICAgYy0wLjMyLDIuMS0wLjc1LDMsMC4xNSw1LjgxYzAuMDgsMC4yNC0wLjEyLDAuNTgtMC4yMSwwLjk3Yy0wLjI1LTAuMTktMC4zMy0wLjIxLTAuMzQtMC4yNmMtMC43NS0yLjU5LTIuMjUtMy40MS01LjI1LTIuODMgICAgICBjLTAuNC0xLjM0LTAuMjctMi43OSwwLjM3LTQuMDNDMS41OSwzOS45MywzLjYxLDM5LjA3LDUuOSwzOC43NnoiLz4mI3hhOwkJCTwvZz4mI3hhOwkJCTxnIGlkPSJzaGFwZTE2NDgtMTMiIHRyYW5zZm9ybT0idHJhbnNsYXRlKDIuMDkyNSwtMS42MDUpIj4mI3hhOwkJCQk8dGl0bGUgaWQ9InRpdGxlMjM0MiI+cGF0aDE0NDcwPC90aXRsZT4mI3hhOwkJCQk8cGF0aCBpZD0icGF0aDIzNDQiIGlua3NjYXBlOmNvbm5lY3Rvci1jdXJ2YXR1cmU9IjAiIHN0eWxlPSJmaWxsOiM0ODcwODk7IiBkPSJNMTEuMTcsNDIuMDJjLTAuNywwLjM3LTEuMzgsMC44LTIuMSwxLjEyICAgICAgYy0xLjk5LDAuOTEtNCwxLjgtNiwyLjY3Yy0wLjUsMC4yMS0wLjcsMC40Ni0wLjU0LDEuMDVjMC4yMywwLjgsMC4zMSwxLjY0LDAuNDUsMi40NkgxLjFjLTAuMzctMC45NS0wLjc5LTEuODktMS4xLTIuODUgICAgICBjLTAuMDYtMC4zMSwwLjAyLTAuNjMsMC4yMy0wLjg3YzIuNTItMi4wOCw1LjI5LTMuODUsOC4yNS01LjI1YzAuNTEtMC4zMSwxLjE3LTAuMTcsMS41LDAuMzIgICAgICBDMTAuMzksNDEuMTcsMTAuNzksNDEuNTcsMTEuMTcsNDIuMDJ6Ii8+JiN4YTsJCQk8L2c+JiN4YTsJCQk8ZyBpZD0ic2hhcGUxNjQ5LTE1IiB0cmFuc2Zvcm09InRyYW5zbGF0ZSgzNi43OTUsLTEuNTgyNSkiPiYjeGE7CQkJCTx0aXRsZSBpZD0idGl0bGUyMzQ3Ij5wYXRoMTQ0NzI8L3RpdGxlPiYjeGE7CQkJCTxwYXRoIGlkPSJwYXRoMjM0OSIgaW5rc2NhcGU6Y29ubmVjdG9yLWN1cnZhdHVyZT0iMCIgc3R5bGU9ImZpbGw6IzMzNEY2MDsiIGQ9Ik0zLjYxLDQ5LjMyTDEsNDkuMjdjMC0wLjE1LDAtMC4zNy0wLjA2LTAuNDQgICAgICBDMCw0OC4wMiwwLjI5LDQ3LjEsMC41Miw0Ni4wOGMwLjMtMS42MSwwLjE1LTMuMjctMC40NS00LjhjMC4yMiwwLjEsMC40MywwLjIxLDAuNjMsMC4zM2MxLjM1LDAuOTQsMi43LDEuODksNC4wNCwyLjgzICAgICAgTDMuNjEsNDkuMzJ6Ii8+JiN4YTsJCQk8L2c+JiN4YTsJCQk8ZyBpZD0ic2hhcGUxNjUwLTE3IiB0cmFuc2Zvcm09InRyYW5zbGF0ZSgxMC40ODE2LC05Ljg0KSI+JiN4YTsJCQkJPHRpdGxlIGlkPSJ0aXRsZTIzNTIiPnBhdGgxNDQ3NDwvdGl0bGU+JiN4YTsJCQkJPHBhdGggaWQ9InBhdGgyMzU0IiBpbmtzY2FwZTpjb25uZWN0b3ItY3VydmF0dXJlPSIwIiBzdHlsZT0iZmlsbDojRjJFMEM5OyIgZD0iTTEuMDgsMzguMTZjMC4yNCwwLjM0LDAuOTMsMC42NywwLjk2LDEuMDMgICAgICBjMC4zMSwzLjg3LDEuNCw3LjI4LDQuMDgsMTAuMTNjLTEuNTMsMC4wMS0yLjkzLTAuODItMy42Ni0yLjE2Yy0wLjkzLTEuOTEtMS42Mi0zLjkzLTIuMzgtNS45MWMtMC4yNS0wLjU5LTAuMDktMS4yNywwLjM5LTEuNyAgICAgIEMwLjc1LDM5LjEyLDAuOTUsMzguNjUsMS4wOCwzOC4xNnoiLz4mI3hhOwkJCTwvZz4mI3hhOwkJCTxnIGlkPSJzaGFwZTE2NTEtMTkiIHRyYW5zZm9ybT0idHJhbnNsYXRlKDMxLjMyLC0zLjU3KSI+JiN4YTsJCQkJPHRpdGxlIGlkPSJ0aXRsZTIzNTciPnBhdGgxNDQ3NjwvdGl0bGU+JiN4YTsJCQkJPHBhdGggaWQ9InBhdGgyMzU5IiBpbmtzY2FwZTpjb25uZWN0b3ItY3VydmF0dXJlPSIwIiBzdHlsZT0iZmlsbDojQ0YzNzMzOyIgZD0iTTQuNyw0NC43M2MwLjExLDEuMjUsMC4yMywyLjQ5LDAuMywzLjc1ICAgICAgYzAsMC41Ny0wLjMxLDAuODQtMC45MSwwLjc1bC0zLjc1LTAuNTdDMC4yOCw0OC4wMywwLDQ3LjExLDAuNzYsNDcuMDdjMC43NS0wLjA1LDAuODItMS4zNSwwLjg2LTEuOSAgICAgIGMwLjA5LTEuMzEsMC41MS0wLjksMS44NC0xLjA4QzMuODgsNDQuMDQsNC4yNyw0NC43OSw0LjcsNDQuNzN6Ii8+JiN4YTsJCQk8L2c+JiN4YTsJCQk8ZyBpZD0ic2hhcGUxNjUyLTIxIiB0cmFuc2Zvcm09InRyYW5zbGF0ZSgyMC4wMSwtMC42MykiPiYjeGE7CQkJCTx0aXRsZSBpZD0idGl0bGUyMzYyIj5wYXRoMTQ0Nzg8L3RpdGxlPiYjeGE7CQkJCTxwYXRoIGlkPSJwYXRoMjM2NCIgaW5rc2NhcGU6Y29ubmVjdG9yLWN1cnZhdHVyZT0iMCIgc3R5bGU9ImZpbGw6I0QxMzgzMzsiIGQ9Ik0zLjgxLDQ4Ljg0Yy0wLjU1LDAuMjEtMS4xMSwwLjM3LTEuNjgsMC40OCAgICAgIEMxLjc2LDQ5LjI4LDEuNDEsNDkuMTcsMS4wOCw0OWMwLTAuMDQtMC4wMi0wLjA4LTAuMDUtMC4xMWwtMC4xNS0wLjc1Yy0wLjQ0LTEuNC0wLjcxLTIuODUtMC44MS00LjMxICAgICAgQzAsNDIuOTksMS4xLDQyLjE2LDEuNzIsNDIuMThjMS4yMiwwLjE1LDIuNDMsMC4zOSwzLjYyLDAuN2MwLjIyLDAsMC42OCwwLjMyLDAuNjIsMC41MmMtMC4yMiwwLjc1LTAuMTYsMS4xOCwwLjMyLDEuMzUgICAgICBDNi43Myw0NSw3LjIxLDQ1LjIsNy43LDQ1LjM2Yy0wLjE2LDAuMzktMC4yMiwwLjkzLTAuNTIsMS4xNUM2LjEsNDcuMzIsNC45NSw0OC4wNiwzLjgxLDQ4Ljg0eiIvPiYjeGE7CQkJPC9nPiYjeGE7CQkJPGcgaWQ9InNoYXBlMTY1My0yMyIgdHJhbnNmb3JtPSJ0cmFuc2xhdGUoMjAuMDY1NywtMS43ODUpIj4mI3hhOwkJCQk8dGl0bGUgaWQ9InRpdGxlMjM2NyI+cGF0aDE0NDgwPC90aXRsZT4mI3hhOwkJCQk8cGF0aCBpZD0icGF0aDIzNjkiIGlua3NjYXBlOmNvbm5lY3Rvci1jdXJ2YXR1cmU9IjAiIHN0eWxlPSJmaWxsOiNFNTNCMzk7IiBkPSJNNy42Niw0Ni40OWMtMC41MS0wLjA0LTEuMDEtMC4xMy0xLjUtMC4yNyAgICAgIGMtMC40Ny0wLjE3LTAuOTQtMC40NC0wLjc1LTEuMTdjLTAuMDMtMC4zMi0wLjIyLTAuNi0wLjUxLTAuNzVjLTEuMTItMC4yLTIuMjUtMC4zMS0zLjM4LTAuMzRjLTAuNjIsMC0wLjksMC43NS0wLjgzLDEuNjEgICAgICBjMC4xMSwxLjIzLDAuMTEsMi40OSwwLjE1LDMuNzVjLTAuODUtMS43NC0xLjEzLTMuNjktMC44MS01LjZjMC4yLTEuMjUsMC43LTEuNjYsMS44OS0xLjI4YzEuMTgsMC4zNywyLjQ5LDAuOTEsMy43MSwxLjQyICAgICAgYzAuNjQsMC4yNywxLjI1LDAuNjQsMi4xMSwxLjA4bC0xLjY1LDAuNzFMNy42Niw0Ni40OXoiLz4mI3hhOwkJCTwvZz4mI3hhOwkJCTxnIGlkPSJzaGFwZTE2NTQtMjUiIHRyYW5zZm9ybT0idHJhbnNsYXRlKDQuNzQsLTIyLjAyNzUpIj4mI3hhOwkJCQk8dGl0bGUgaWQ9InRpdGxlMjM3MiI+cGF0aDE0NDgyPC90aXRsZT4mI3hhOwkJCQk8cGF0aCBpZD0icGF0aDIzNzQiIGlua3NjYXBlOmNvbm5lY3Rvci1jdXJ2YXR1cmU9IjAiIHN0eWxlPSJmaWxsOiNFRkREQzc7IiBkPSJNNiw0NC40OUg0Ljg5Yy0wLjQ4LTAuMjUtMC45OC0wLjQ1LTEuNS0wLjU4ICAgICAgYy0wLjY3LTAuMS0xLjMsMC4zNi0xLjQsMS4wNGMtMC4wMiwwLjExLTAuMDIsMC4yMywwLDAuMzRjLTAuMTIsMS4wOS0wLjI0LDIuMTktMC4zOCwzLjI4Yy0wLjA2LDAuMjYtMC4xNCwwLjUxLTAuMjQsMC43NSAgICAgIEMwLjU1LDQ3Ljk4LDAsNDYuNTksMC41Myw0NS4wOWMwLjMxLTAuODMsMC44NS0xLjU1LDEuNTYtMi4wN0MzLjczLDQxLjg3LDUuMjYsNDIuNTEsNiw0NC40OXoiLz4mI3hhOwkJCTwvZz4mI3hhOwkJCTxnIGlkPSJzaGFwZTE2NTUtMjciIHRyYW5zZm9ybT0idHJhbnNsYXRlKDM1LjI3MjUsLTYuNDU3NSkiPiYjeGE7CQkJCTx0aXRsZSBpZD0idGl0bGUyMzc3Ij5wYXRoMTQ0ODQ8L3RpdGxlPiYjeGE7CQkJCTxwYXRoIGlkPSJwYXRoMjM3OSIgaW5rc2NhcGU6Y29ubmVjdG9yLWN1cnZhdHVyZT0iMCIgc3R5bGU9ImZpbGw6IzQ3NkY4NzsiIGQ9Ik02LjI1LDQ5LjMyYy0xLjM0LTAuOTUtMi42OC0xLjg5LTQuMDMtMi44MyAgICAgIGMtMC4yLTAuMTMtMC40MS0wLjI0LTAuNjMtMC4zNEwwLDQ0LjU5bDEuMzMtMS4xNmwyLjI1LDIuMDJjMC40NCwwLjQ3LDAuOTEsMC45MSwxLjQxLDEuMzJDNS45MSw0Ny4yNyw2LjQxLDQ4LjI5LDYuMjUsNDkuMzJ6Ii8+JiN4YTsJCQk8L2c+JiN4YTsJCQk8ZyBpZD0ic2hhcGUxNjU2LTI5IiB0cmFuc2Zvcm09InRyYW5zbGF0ZSg4LjgyLC0zOC44NjUpIj4mI3hhOwkJCQk8dGl0bGUgaWQ9InRpdGxlMjM4MiI+cGF0aDE0NDg2PC90aXRsZT4mI3hhOwkJCQk8cGF0aCBpZD0icGF0aDIzODQiIGlua3NjYXBlOmNvbm5lY3Rvci1jdXJ2YXR1cmU9IjAiIHN0eWxlPSJmaWxsOiNEM0QwQ0Y7IiBkPSJNMS45Nyw0OC41N0wwLDQ5LjMyICAgICAgYzAuOTgtMi42Miw3LjA1LTYuNTEsOC43NC01LjU5bC0yLjQ0LDEuNUM0LjUzLDQ1Ljg0LDMuMDEsNDcuMDEsMS45Nyw0OC41N3oiLz4mI3hhOwkJCTwvZz4mI3hhOwkJCTxnIGlkPSJzaGFwZTE2NTctMzEiIHRyYW5zZm9ybT0idHJhbnNsYXRlKDYuMzE1LC0zMC4wNzUpIj4mI3hhOwkJCQk8dGl0bGUgaWQ9InRpdGxlMjM4NyI+cGF0aDE0NDg4PC90aXRsZT4mI3hhOwkJCQk8cGF0aCBpZD0icGF0aDIzODkiIGlua3NjYXBlOmNvbm5lY3Rvci1jdXJ2YXR1cmU9IjAiIHN0eWxlPSJmaWxsOiNEQ0Q5RDg7IiBkPSJNNi4xOCw0MS44NWMtMi4zMSwwLjMzLTQuMzEsMS4xOC01LjM1LDMuNDMgICAgICBjLTAuNjQsMS4yNS0wLjc4LDIuNy0wLjM3LDQuMDRjLTAuMTUsMC0wLjQ0LDAtMC40Ni0wLjA2Yy0xLjA4LTMuMjcsMC43LTYuOCwzLjk3LTcuODhjMC4zMi0wLjExLDAuNjUtMC4xOSwwLjk4LTAuMjQgICAgICBsMS4wOS0wLjE2TDYuMTgsNDEuODV6Ii8+JiN4YTsJCQk8L2c+JiN4YTsJCQk8ZyBpZD0ic2hhcGUxNjU4LTMzIiB0cmFuc2Zvcm09InRyYW5zbGF0ZSgzMC44NTUsLTQuMjIyNSkiPiYjeGE7CQkJCTx0aXRsZSBpZD0idGl0bGUyMzkyIj5wYXRoMTQ0OTA8L3RpdGxlPiYjeGE7CQkJCTxwYXRoIGlkPSJwYXRoMjM5NCIgaW5rc2NhcGU6Y29ubmVjdG9yLWN1cnZhdHVyZT0iMCIgc3R5bGU9ImZpbGw6I0U1M0IzOTsiIGQ9Ik01LjE3LDQ1LjM4Yy0wLjQyLDAuMDctMC44NCwwLjE0LTEuMjcsMC4xOSAgICAgIGMtMS4zNCwwLjE4LTEuMzMsMC4xOC0xLjQyLDEuNWMtMC4wNCwwLjU1LTAuMTMsMS4wOC0wLjgyLDEuMTJjLTAuNjksMC4wNC0wLjkxLDAuNS0wLjg1LDEuMTNDMC43LDQ4LjksMC40LDQ4LjQxLDAuNTMsNDguMDkgICAgICBjMC4xNC0wLjMxLDAuNjgtMC41NCwxLjA4LTAuODJjLTAuNDQtMC4yNC0xLjYxLDAuMzQtMS40NC0xLjFjMC45NS0wLjU1LDEuOTgtMS4yMywzLjA5LTEuNzVDNC4zNyw0My45LDQuODQsNDQuMjYsNS4xNyw0NS4zOHogICAgICAiLz4mI3hhOwkJCTwvZz4mI3hhOwkJCTxnIGlkPSJzaGFwZTE2NTktMzUiIHRyYW5zZm9ybT0idHJhbnNsYXRlKDI4LjUsLTEuNTk3NSkiPiYjeGE7CQkJCTx0aXRsZSBpZD0idGl0bGUyMzk3Ij5wYXRoMTQ0OTI8L3RpdGxlPiYjeGE7CQkJCTxwYXRoIGlkPSJwYXRoMjM5OSIgaW5rc2NhcGU6Y29ubmVjdG9yLWN1cnZhdHVyZT0iMCIgc3R5bGU9ImZpbGw6I0Y3RjdGNzsiIGQ9Ik0xLjExLDQ5LjMyQzAsNDcuOTEsMS43OCw0Ny45MSwyLjg0LDQ3LjkxICAgICAgYzAuODYsMCwxLjE2LDAuNjYsMS4yNSwxLjM4Yy0wLjQ3LTAuMDktMC45My0wLjItMS4zOS0wLjI1Yy0wLjI3LDAtMC41MywwLjAzLTAuNzksMC4xQzEuNjQsNDkuMTcsMS4zNyw0OS4yNSwxLjExLDQ5LjMyeiIvPiYjeGE7CQkJPC9nPiYjeGE7CQkJPGcgaWQ9InNoYXBlMTY2MC0zNyIgdHJhbnNmb3JtPSJ0cmFuc2xhdGUoMjcuODc3NSwtMS41OTc1KSI+JiN4YTsJCQkJPHRpdGxlIGlkPSJ0aXRsZTI0MDIiPnBhdGgxNDQ5NDwvdGl0bGU+JiN4YTsJCQkJPHBhdGggaWQ9InBhdGgyNDA0IiBpbmtzY2FwZTpjb25uZWN0b3ItY3VydmF0dXJlPSIwIiBzdHlsZT0iZmlsbDojRDdENEQzOyIgZD0iTTQuODksNDkuMjhINC43MWMtMC40OC0wLjI3LTAuOTUtMC41NS0xLjQzLTAuOCAgICAgIGMtMC45NS0wLjQ3LTEuMzItMC4yNi0xLjU2LDAuODRsLTEuMDctMC4wNkwwLDQ4LjE4YzAuNTgtMC44OSwxLjY1LTAuODYsMi40My0wLjg5czEuNjQsMC42MiwyLjQ2LDFMNC44OSw0OS4yOHoiLz4mI3hhOwkJCTwvZz4mI3hhOwkJCTxnIGlkPSJzaGFwZTE2NjEtMzkiIHRyYW5zZm9ybT0idHJhbnNsYXRlKDEwLjc5MjUsLTM5LjU3KSI+JiN4YTsJCQkJPHRpdGxlIGlkPSJ0aXRsZTI0MDciPnBhdGgxNDQ5NjwvdGl0bGU+JiN4YTsJCQkJPHBhdGggaWQ9InBhdGgyNDA5IiBpbmtzY2FwZTpjb25uZWN0b3ItY3VydmF0dXJlPSIwIiBzdHlsZT0iZmlsbDojNkQ2QjZEOyIgZD0iTTAsNDkuMjdjMS4wNS0xLjU0LDIuNTctMi42OSw0LjMzLTMuMjkgICAgICBDMy43OCw0Ny4wMiwzLjEsNDgsMi4zMSw0OC44OEMxLjgyLDQ5LjMyLDAuNzksNDkuMTQsMCw0OS4yN3oiLz4mI3hhOwkJCTwvZz4mI3hhOwkJCTxnIGlkPSJzaGFwZTE2NjItNDEiIHRyYW5zZm9ybT0idHJhbnNsYXRlKDE1LjI0NzUsLTcuMTMyNSkiPiYjeGE7CQkJCTx0aXRsZSBpZD0idGl0bGUyNDEyIj5wYXRoMTQ0OTg8L3RpdGxlPiYjeGE7CQkJCTxwYXRoIGlkPSJwYXRoMjQxNCIgaW5rc2NhcGU6Y29ubmVjdG9yLWN1cnZhdHVyZT0iMCIgc3R5bGU9ImZpbGw6I0U5RThFODsiIGQ9Ik0zLjk1LDQ3Ljk3bC0wLjMxLDEuMzUgICAgICBDMS44LDQ5LjIyLDAuMTksNDguMzYsMCw0Ny4zN0wzLjk1LDQ3Ljk3eiIvPiYjeGE7CQkJPC9nPiYjeGE7CQkJPGcgaWQ9InNoYXBlMTY2My00MyIgdHJhbnNmb3JtPSJ0cmFuc2xhdGUoMzMuODQsLTM3LjUzNzUpIj4mI3hhOwkJCQk8dGl0bGUgaWQ9InRpdGxlMjQxNyI+cGF0aDE0NTAwPC90aXRsZT4mI3hhOwkJCQk8cGF0aCBpZD0icGF0aDI0MTkiIGlua3NjYXBlOmNvbm5lY3Rvci1jdXJ2YXR1cmU9IjAiIHN0eWxlPSJmaWxsOiNGMkUwQzk7IiBkPSJNMC42MSw0OS4zMkMwLDQ5LjIzLDAuMDEsNDguNzksMC4xLDQ4LjM0ICAgICAgYzAuMjMtMS4xOSwxLjIyLTIuMSwyLjQzLTIuMjFsMS4wOSwxLjNjLTAuNjYsMC4wNS0xLjMyLDAuMTUtMS45NiwwLjNDMS4wMSw0Ny45OCwwLjU5LDQ4LjYyLDAuNjEsNDkuMzJ6Ii8+JiN4YTsJCQk8L2c+JiN4YTsJCQk8ZyBpZD0ic2hhcGUxNjY0LTQ1IiB0cmFuc2Zvcm09InRyYW5zbGF0ZSgyNi41MTI1LC03LjYwOTI0KSI+JiN4YTsJCQkJPHRpdGxlIGlkPSJ0aXRsZTI0MjIiPnBhdGgxNDUwMjwvdGl0bGU+JiN4YTsJCQkJPHBhdGggaWQ9InBhdGgyNDI0IiBpbmtzY2FwZTpjb25uZWN0b3ItY3VydmF0dXJlPSIwIiBzdHlsZT0iZmlsbDojREVDOEFEOyIgZD0iTTAsNDguNDFsNC44Mi0wLjUzICAgICAgYy0wLjksMS40NS0yLjgsMS44OS00LjI1LDAuOTlDMC4zNyw0OC43NCwwLjE3LDQ4LjU5LDAsNDguNDF6Ii8+JiN4YTsJCQk8L2c+JiN4YTsJCQk8ZyBpZD0ic2hhcGUxNjY1LTQ3IiB0cmFuc2Zvcm09InRyYW5zbGF0ZSgyOC4zOCwtNC40MjUpIj4mI3hhOwkJCQk8dGl0bGUgaWQ9InRpdGxlMjQyNyI+cGF0aDE0NTA0PC90aXRsZT4mI3hhOwkJCQk8cGF0aCBpZD0icGF0aDI0MjkiIGlua3NjYXBlOmNvbm5lY3Rvci1jdXJ2YXR1cmU9IjAiIHN0eWxlPSJmaWxsOiNFNTNCMzk7IiBkPSJNMCw0Ny40OWMwLjI1LTAuMjMsMC41NS0wLjQsMC44OC0wLjUgICAgICBjMC42Ni0wLjA3LDEuMDEsMC40MSwxLjAzLDEuMDRjMC4wOCwwLjU4LTAuMzIsMS4xMS0wLjg5LDEuMmMtMC4wNCwwLjAxLTAuMDgsMC4wMS0wLjEzLDAuMDFDMC4zMiw0OS4zMiwwLjAyLDQ4LjgsMCw0Ny40OXoiLz4mI3hhOwkJCTwvZz4mI3hhOwkJCTxnIGlkPSJzaGFwZTE2NjYtNDkiIHRyYW5zZm9ybT0idHJhbnNsYXRlKDMzLjQ1LC0xLjUpIj4mI3hhOwkJCQk8dGl0bGUgaWQ9InRpdGxlMjQzMiI+cGF0aDE0NTA2PC90aXRsZT4mI3hhOwkJCQk8cGF0aCBpZD0icGF0aDI0MzQiIGlua3NjYXBlOmNvbm5lY3Rvci1jdXJ2YXR1cmU9IjAiIHN0eWxlPSJmaWxsOiM3RUFBQkQ7IiBkPSJNMy43NSw0OS4zMkgwYzAuMDEtMC44NiwwLjcyLTEuNTQsMS41OC0xLjUzICAgICAgYzAuMjgsMCwwLjU1LDAuMDgsMC43OCwwLjIzQzIuODQsNDguMjQsMy4zMyw0OC45NiwzLjc1LDQ5LjMyeiIvPiYjeGE7CQkJPC9nPiYjeGE7CQkJPGcgaWQ9InNoYXBlMTY2Ny01MSIgdHJhbnNmb3JtPSJ0cmFuc2xhdGUoNi4zNDUsLTIxLjUyNSkiPiYjeGE7CQkJCTx0aXRsZSBpZD0idGl0bGUyNDM3Ij5wYXRoMTQ1MDg8L3RpdGxlPiYjeGE7CQkJCTxwYXRoIGlkPSJwYXRoMjQzOSIgaW5rc2NhcGU6Y29ubmVjdG9yLWN1cnZhdHVyZT0iMCIgc3R5bGU9ImZpbGw6I0VGRERDNzsiIGQ9Ik0wLDQ5LjA5bDAuMTksMC4yM0wwLDQ5LjA5eiIvPiYjeGE7CQkJPC9nPiYjeGE7CQkJPGcgaWQ9InNoYXBlMTY2OC01MyIgdHJhbnNmb3JtPSJ0cmFuc2xhdGUoMTAuNzMyNSwtMjYuNTY1KSI+JiN4YTsJCQkJPHRpdGxlIGlkPSJ0aXRsZTI0NDIiPnBhdGgxNDUxMDwvdGl0bGU+JiN4YTsJCQkJPHBhdGggaWQ9InBhdGgyNDQ0IiBpbmtzY2FwZTpjb25uZWN0b3ItY3VydmF0dXJlPSIwIiBzdHlsZT0iZmlsbDojRUZEREM3OyIgZD0iTTAuMDcsNDkuMzJMMCw0OS4wNUwwLjA3LDQ5LjMyeiIvPiYjeGE7CQkJPC9nPiYjeGE7CQkJPGcgaWQ9InNoYXBlMTY2OS01NSIgdHJhbnNmb3JtPSJ0cmFuc2xhdGUoMjguNTYsLTIwLjA3KSI+JiN4YTsJCQkJPHRpdGxlIGlkPSJ0aXRsZTI0NDciPnBhdGgxNDUxMjwvdGl0bGU+JiN4YTsJCQkJPHBhdGggaWQ9InBhdGgyNDQ5IiBpbmtzY2FwZTpjb25uZWN0b3ItY3VydmF0dXJlPSIwIiBzdHlsZT0iZmlsbDojMkIyNzI2OyIgZD0iTTAuOSw0Ni44OWMwLjI3LDEuMTgsMC41MSwxLjUsMS41OSwxLjI3ICAgICAgYzEuNTgtMC40MSwzLjExLTAuOTUsNC41OS0xLjYzYzAuNjctMC4yOSwwLjYxLTEuMjYsMC0yLjA0Yy0wLjk1LTEuMjItMS45NS0yLjQtMi44NS0zLjY1Yy0wLjk2LTEuMjItMS40My0yLjc2LTEuMzEtNC4zMSAgICAgIGMwLjI1LDAuMjIsMC40NywwLjMxLDAuNTIsMC40NmMwLjk1LDIuNzEsMi44Nyw0Ljc0LDQuNzcsNi43NWMwLjg4LDAuODIsMC45NCwyLjIsMC4xMiwzLjA4Yy0wLjE0LDAuMTUtMC4zMSwwLjI5LTAuNDksMC40ICAgICAgYy0xLjk1LDEuMi0zLjk5LDIuMS02LjM2LDEuOTVjLTAuODQtMC4wNS0xLjA0LTAuNjMtMS4xMS0xLjIzQzAuMzEsNDcuNDcsMCw0Ni43OCwwLjg1LDQ2LjU2TDAuOSw0Ni44OXoiLz4mI3hhOwkJCTwvZz4mI3hhOwkJCTxnIGlkPSJzaGFwZTE2NzAtNTciIHRyYW5zZm9ybT0idHJhbnNsYXRlKDIzLjEwNzUsLTMwLjMyMjUpIj4mI3hhOwkJCQk8dGl0bGUgaWQ9InRpdGxlMjQ1MiI+cGF0aDE0NTE0PC90aXRsZT4mI3hhOwkJCQk8cGF0aCBpZD0icGF0aDI0NTQiIGlua3NjYXBlOmNvbm5lY3Rvci1jdXJ2YXR1cmU9IjAiIHN0eWxlPSJmaWxsOiNGNUUyQ0I7IiBkPSJNMi4wOSw0Ni41NmwwLjkzLDIuNjEgICAgICBjLTAuNjMsMC4xMi0xLjI3LDAuMTctMS45MSwwLjE1QzAuNjUsNDkuMjUsMC4yNCw0OC45OCwwLDQ4LjU3Yy0wLjEtMC40NiwwLjA0LTAuOTMsMC4zNy0xLjI3ICAgICAgQzAuOTEsNDYuOTcsMS40OSw0Ni43MywyLjA5LDQ2LjU2eiIvPiYjeGE7CQkJPC9nPiYjeGE7CQkJPGcgaWQ9InNoYXBlMTY3MS01OSIgdHJhbnNmb3JtPSJ0cmFuc2xhdGUoMTcuNjQ3NSwtMzQuNzQ3NSkiPiYjeGE7CQkJCTx0aXRsZSBpZD0idGl0bGUyNDU3Ij5wYXRoMTQ1MTY8L3RpdGxlPiYjeGE7CQkJCTxwYXRoIGlkPSJwYXRoMjQ1OSIgaW5rc2NhcGU6Y29ubmVjdG9yLWN1cnZhdHVyZT0iMCIgc3R5bGU9ImZpbGw6I0VGRERDNzsiIGQ9Ik01LjQ2LDQ1LjRjLTEuOTEtMC41My00LjU3LDEuNy00Ljg0LDMuOTIgICAgICBjLTAuNjItMC42My0wLjM4LTEuMzMtMC4xLTEuOThDMS4wNyw0Ni4wMSwyLjIsNDUsMy41OCw0NC41OWMwLjcyLTAuMzEsMS41NCwwLjAyLDEuODUsMC43NEM1LjQ0LDQ1LjM1LDUuNDUsNDUuMzgsNS40Niw0NS40eiIvPiYjeGE7CQkJPC9nPiYjeGE7CQkJPGcgaWQ9InNoYXBlMTY3Mi02MSIgdHJhbnNmb3JtPSJ0cmFuc2xhdGUoMzUuNjEsLTMwLjI3NzUpIj4mI3hhOwkJCQk8dGl0bGUgaWQ9InRpdGxlMjQ2MiI+cGF0aDE0NTE4PC90aXRsZT4mI3hhOwkJCQk8cGF0aCBpZD0icGF0aDI0NjQiIGlua3NjYXBlOmNvbm5lY3Rvci1jdXJ2YXR1cmU9IjAiIHN0eWxlPSJmaWxsOiNGNUUyQ0I7IiBkPSJNMS45OCw0Ni41MmwwLjQ2LDEuNzYgICAgICBjLTAuMDYsMC4wNy0wLjExLDAuMTctMC4xOCwwLjJjLTAuNiwwLjI0LTEuMjMsMC44NC0xLjgzLDAuMTVjLTAuNDMtMC41LDAuMTItMS41OCwwLjkzLTEuOTdDMS41Niw0Ni41OSwxLjc3LDQ2LjU0LDEuOTgsNDYuNTIgICAgICB6Ii8+JiN4YTsJCQk8L2c+JiN4YTsJCQk8ZyBpZD0ic2hhcGUxNjczLTYzIiB0cmFuc2Zvcm09InRyYW5zbGF0ZSgyMi40NzgzLC0xNy4xMTUpIj4mI3hhOwkJCQk8dGl0bGUgaWQ9InRpdGxlMjQ2NyI+cGF0aDE0NTIwPC90aXRsZT4mI3hhOwkJCQk8cGF0aCBpZD0icGF0aDI0NjkiIGlua3NjYXBlOmNvbm5lY3Rvci1jdXJ2YXR1cmU9IjAiIHN0eWxlPSJmaWxsOiNGNUUyQ0I7IiBkPSJNMC4wNSw0OS4yOWMtMC4wNy0wLjY5LTAuMDctMS40LDAtMi4wOSAgICAgIGMwLTAuMTYsMC43NS0wLjIxLDEuNC0wLjM3bC0wLjk4LDIuNDlMMC4wNSw0OS4yOXoiLz4mI3hhOwkJCTwvZz4mI3hhOwkJCTxnIGlkPSJzaGFwZTE2NzQtNjUiIHRyYW5zZm9ybT0idHJhbnNsYXRlKDI5LjM4NSwtMjIuNSkiPiYjeGE7CQkJCTx0aXRsZSBpZD0idGl0bGUyNDcyIj5wYXRoMTQ1MjI8L3RpdGxlPiYjeGE7CQkJCTxwYXRoIGlkPSJwYXRoMjQ3NCIgaW5rc2NhcGU6Y29ubmVjdG9yLWN1cnZhdHVyZT0iMCIgc3R5bGU9ImZpbGw6I0Y1RTJDQjsiIGQ9Ik0wLjA3LDQ5LjMyTDAsNDkuMDIgICAgICBjMC4wMy0wLjQsMC4xLTAuNzksMC4yMi0xLjE3YzAuMTEtMC4yNiwwLjM0LTAuNDUsMC42MS0wLjUzYzAuMjYsMC4wMywwLjQ5LDAuMiwwLjYsMC40NGMwLjA1LDAuMjktMC4wMywwLjU4LTAuMjMsMC43OSAgICAgIEMwLjg1LDQ4Ljg1LDAuNDcsNDkuMTEsMC4wNyw0OS4zMnoiLz4mI3hhOwkJCTwvZz4mI3hhOwkJPC9nPiYjeGE7CTwvZz4mI3hhOzwvZz4mI3hhOzwvc3ZnPg==;" vertex="1" parent="oLDCRv-mCkKeXU4i5kK5-5">
          <mxGeometry x="20" y="70" width="43" height="48" as="geometry" />
        </mxCell>
        <mxCell id="oLDCRv-mCkKeXU4i5kK5-10" value="Terraform" style="shape=image;verticalLabelPosition=bottom;labelBackgroundColor=none;verticalAlign=top;aspect=fixed;imageAspect=0;image=data:image/svg+xml,PHN2ZyB4bWxuczpjYz0iaHR0cDovL2NyZWF0aXZlY29tbW9ucy5vcmcvbnMjIiB4bWxuczpkYz0iaHR0cDovL3B1cmwub3JnL2RjL2VsZW1lbnRzLzEuMS8iIHhtbG5zOmlua3NjYXBlPSJodHRwOi8vd3d3Lmlua3NjYXBlLm9yZy9uYW1lc3BhY2VzL2lua3NjYXBlIiB4bWxuczpyZGY9Imh0dHA6Ly93d3cudzMub3JnLzE5OTkvMDIvMjItcmRmLXN5bnRheC1ucyMiIHhtbG5zOnNvZGlwb2RpPSJodHRwOi8vc29kaXBvZGkuc291cmNlZm9yZ2UubmV0L0RURC9zb2RpcG9kaS0wLmR0ZCIgeG1sbnM6c3ZnPSJodHRwOi8vd3d3LnczLm9yZy8yMDAwL3N2ZyIgeG1sbnM9Imh0dHA6Ly93d3cudzMub3JnLzIwMDAvc3ZnIiB4bWxuczp4bGluaz0iaHR0cDovL3d3dy53My5vcmcvMTk5OS94bGluayIgdmVyc2lvbj0iMS4xIiBpZD0ic3ZnNDA4ODAiIGlua3NjYXBlOnZlcnNpb249IjAuOTIuMyAoMjQwNTU0NiwgMjAxOC0wMy0xMSkiIHNvZGlwb2RpOmRvY25hbWU9InRlcnJhZm9ybS5zdmciIHg9IjBweCIgeT0iMHB4IiB2aWV3Qm94PSIwIDAgMzkuNiA0NSIgc3R5bGU9ImVuYWJsZS1iYWNrZ3JvdW5kOm5ldyAwIDAgMzkuNiA0NTsiIHhtbDpzcGFjZT0icHJlc2VydmUiPiYjeGE7PHNvZGlwb2RpOm5hbWVkdmlldyBib3JkZXJjb2xvcj0iIzY2NjY2NiIgYm9yZGVyb3BhY2l0eT0iMSIgZml0LW1hcmdpbi1ib3R0b209IjAiIGZpdC1tYXJnaW4tbGVmdD0iMCIgZml0LW1hcmdpbi1yaWdodD0iMCIgZml0LW1hcmdpbi10b3A9IjAiIGdyaWR0b2xlcmFuY2U9IjEwIiBndWlkZXRvbGVyYW5jZT0iMTAiIGlkPSJuYW1lZHZpZXc0MDg4MiIgaW5rc2NhcGU6Y3VycmVudC1sYXllcj0ic3ZnNDA4ODAiIGlua3NjYXBlOmN4PSIyNi4zOTk5ODYiIGlua3NjYXBlOmN5PSIyOS45OTk5ODUiIGlua3NjYXBlOnBhZ2VvcGFjaXR5PSIwIiBpbmtzY2FwZTpwYWdlc2hhZG93PSIyIiBpbmtzY2FwZTp3aW5kb3ctaGVpZ2h0PSIxMDE3IiBpbmtzY2FwZTp3aW5kb3ctbWF4aW1pemVkPSIxIiBpbmtzY2FwZTp3aW5kb3ctd2lkdGg9IjE5MjAiIGlua3NjYXBlOndpbmRvdy14PSItOCIgaW5rc2NhcGU6d2luZG93LXk9Ii04IiBpbmtzY2FwZTp6b29tPSIxMy45ODM4NzgiIG9iamVjdHRvbGVyYW5jZT0iMTAiIHBhZ2Vjb2xvcj0iI2ZmZmZmZiIgc2hvd2dyaWQ9ImZhbHNlIj4mI3hhOwk8L3NvZGlwb2RpOm5hbWVkdmlldz4mI3hhOzxnIGlkPSJnNDA4NzgiIHRyYW5zZm9ybT0idHJhbnNsYXRlKC0wLjc1LC0wLjc0NzUpIj4mI3hhOwk8dGl0bGUgaWQ9InRpdGxlNDA4NDQiPlBhZ2UtMTwvdGl0bGU+JiN4YTsJPGcgaWQ9Imdyb3VwMTU3MC0xIiB0cmFuc2Zvcm09InRyYW5zbGF0ZSgwLjc1LC0wLjc1KSI+JiN4YTsJCTx0aXRsZSBpZD0idGl0bGU0MDg0NiI+VGVycmFmb3JtPC90aXRsZT4mI3hhOwkJPGcgaWQ9Imdyb3VwMTU3MS0yIj4mI3hhOwkJCTx0aXRsZSBpZD0idGl0bGU0MDg0OCI+TG9nbzwvdGl0bGU+JiN4YTsJCQk8ZyBpZD0ic2hhcGUxNTcyLTMiIHRyYW5zZm9ybT0idHJhbnNsYXRlKDEzLjY1LC0xNS43NjUpIj4mI3hhOwkJCQk8dGl0bGUgaWQ9InRpdGxlNDA4NTAiPnBvbHlnb24zNzA2PC90aXRsZT4mI3hhOwkJCQk8cGF0aCBpZD0icGF0aDQwODUyIiBpbmtzY2FwZTpjb25uZWN0b3ItY3VydmF0dXJlPSIwIiBzdHlsZT0iZmlsbDojNUM0RUU1OyIgZD0iTTEyLjMsNDYuNUwwLDM5LjRWMjUuMTlsMTIuMyw3LjExVjQ2LjV6Ii8+JiN4YTsJCQk8L2c+JiN4YTsJCQk8ZyBpZD0ic2hhcGUxNTczLTUiIHRyYW5zZm9ybT0idHJhbnNsYXRlKDI3LjMsLTE1Ljc2NSkiPiYjeGE7CQkJCTx0aXRsZSBpZD0idGl0bGU0MDg1NSI+cG9seWdvbjM3MDg8L3RpdGxlPiYjeGE7CQkJCTxwYXRoIGlkPSJwYXRoNDA4NTciIGlua3NjYXBlOmNvbm5lY3Rvci1jdXJ2YXR1cmU9IjAiIHN0eWxlPSJmaWxsOiM0MDQwQjI7IiBkPSJNMTIuMywzOS40MVYyNS4xOUwwLDMyLjN2MTQuMkwxMi4zLDM5LjQxeiIvPiYjeGE7CQkJPC9nPiYjeGE7CQkJPGcgaWQ9InNoYXBlMTU3NC03IiB0cmFuc2Zvcm09InRyYW5zbGF0ZSgwLC0yMy42OTI1KSI+JiN4YTsJCQkJPHRpdGxlIGlkPSJ0aXRsZTQwODYwIj5wb2x5Z29uMzcxMDwvdGl0bGU+JiN4YTsJCQkJPHBhdGggaWQ9InBhdGg0MDg2MiIgaW5rc2NhcGU6Y29ubmVjdG9yLWN1cnZhdHVyZT0iMCIgc3R5bGU9ImZpbGw6IzVDNEVFNTsiIGQ9Ik0xMi4zLDQ2LjVWMzIuM0wwLDI1LjE5VjM5LjRMMTIuMyw0Ni41eiIvPiYjeGE7CQkJPC9nPiYjeGE7CQkJPGcgaWQ9InNoYXBlMTU3NS05IiB0cmFuc2Zvcm09InRyYW5zbGF0ZSgxMy42NSkiPiYjeGE7CQkJCTx0aXRsZSBpZD0idGl0bGU0MDg2NSI+cG9seWdvbjM3MTI8L3RpdGxlPiYjeGE7CQkJCTxwYXRoIGlkPSJwYXRoNDA4NjciIGlua3NjYXBlOmNvbm5lY3Rvci1jdXJ2YXR1cmU9IjAiIHN0eWxlPSJmaWxsOiM1QzRFRTU7IiBkPSJNMTIuMywzMi4zOVYzMi4zTDAsMjUuMTlWMzkuNGwxMi4zLDcuMVYzMi4zOXogICAgICAiLz4mI3hhOwkJCTwvZz4mI3hhOwkJCTxnIGlkPSJzaGFwZTE1NzYtMTEiIHRyYW5zZm9ybT0idHJhbnNsYXRlKDM0LjQwMjUsLTkuMzIyNSkiPiYjeGE7CQkJCTx0aXRsZSBpZD0idGl0bGU0MDg3MCI+cGF0aDM3MTQ8L3RpdGxlPiYjeGE7CQkJPC9nPiYjeGE7CQkJPGcgaWQ9InNoYXBlMTU3Ny0xMiIgdHJhbnNmb3JtPSJ0cmFuc2xhdGUoMTMuNjUsLTIxLjMwNzUpIj4mI3hhOwkJCQk8dGl0bGUgaWQ9InRpdGxlNDA4NzMiPnBhdGgzNzE2PC90aXRsZT4mI3hhOwkJCTwvZz4mI3hhOwkJPC9nPiYjeGE7CTwvZz4mI3hhOzwvZz4mI3hhOzwvc3ZnPg==;" vertex="1" parent="oLDCRv-mCkKeXU4i5kK5-5">
          <mxGeometry x="110" y="70" width="40" height="45" as="geometry" />
        </mxCell>
        <mxCell id="oLDCRv-mCkKeXU4i5kK5-12" value="" style="shape=image;html=1;verticalAlign=top;verticalLabelPosition=bottom;labelBackgroundColor=#ffffff;imageAspect=0;aspect=fixed;image=https://cdn1.iconfinder.com/data/icons/unicons-line-vol-3/24/docker-128.png" vertex="1" parent="oLDCRv-mCkKeXU4i5kK5-5">
          <mxGeometry x="110" y="19" width="51" height="51" as="geometry" />
        </mxCell>
        <mxCell id="oLDCRv-mCkKeXU4i5kK5-13" value="Prod" style="swimlane;whiteSpace=wrap;html=1;" vertex="1" parent="1">
          <mxGeometry x="390" y="-710" width="200" height="110" as="geometry" />
        </mxCell>
        <mxCell id="oLDCRv-mCkKeXU4i5kK5-18" value="" style="edgeStyle=none;rounded=0;orthogonalLoop=1;jettySize=auto;html=1;" edge="1" parent="1" source="oLDCRv-mCkKeXU4i5kK5-15" target="oLDCRv-mCkKeXU4i5kK5-17">
          <mxGeometry relative="1" as="geometry" />
        </mxCell>
        <mxCell id="oLDCRv-mCkKeXU4i5kK5-15" value="" style="shape=cylinder3;whiteSpace=wrap;html=1;boundedLbl=1;backgroundOutline=1;size=5;" vertex="1" parent="1">
          <mxGeometry x="670" y="-1100" width="30" height="40" as="geometry" />
        </mxCell>
        <mxCell id="oLDCRv-mCkKeXU4i5kK5-17" value="" style="shape=cylinder3;whiteSpace=wrap;html=1;boundedLbl=1;backgroundOutline=1;size=5;" vertex="1" parent="1">
          <mxGeometry x="780" y="-1100" width="30" height="40" as="geometry" />
        </mxCell>
        <mxCell id="oLDCRv-mCkKeXU4i5kK5-35" style="edgeStyle=none;rounded=0;orthogonalLoop=1;jettySize=auto;html=1;entryX=-0.008;entryY=0.157;entryDx=0;entryDy=0;entryPerimeter=0;" edge="1" parent="1" source="oLDCRv-mCkKeXU4i5kK5-22" target="oLDCRv-mCkKeXU4i5kK5-24">
          <mxGeometry relative="1" as="geometry" />
        </mxCell>
        <mxCell id="oLDCRv-mCkKeXU4i5kK5-22" value="" style="sketch=0;outlineConnect=0;fontColor=#232F3E;gradientColor=none;fillColor=#B0084D;strokeColor=none;dashed=0;verticalLabelPosition=bottom;verticalAlign=top;align=center;html=1;fontSize=12;fontStyle=0;aspect=fixed;pointerEvents=1;shape=mxgraph.aws4.logs;" vertex="1" parent="1">
          <mxGeometry x="670" y="-1048" width="51.1" height="38" as="geometry" />
        </mxCell>
        <mxCell id="oLDCRv-mCkKeXU4i5kK5-23" value="&lt;br/&gt;&lt;span data-whi-docs=&quot;[[:p &amp;quot;Database per service&amp;quot;]]&quot;&gt;&lt;/span&gt;&amp;nbsp;Database per service" style="text;html=1;strokeColor=none;fillColor=none;align=center;verticalAlign=middle;whiteSpace=wrap;rounded=0;" vertex="1" parent="1">
          <mxGeometry x="670" y="-1169" width="130" height="20" as="geometry" />
        </mxCell>
        <mxCell id="oLDCRv-mCkKeXU4i5kK5-24" value="&lt;br/&gt;&lt;span data-whi-docs=&quot;[[:p &amp;quot;Monitoring, logging, analytics&amp;quot;]]&quot;&gt;&lt;/span&gt;&amp;nbsp;Monitoring, logging, analytics" style="swimlane;horizontal=0;whiteSpace=wrap;html=1;startSize=30;" vertex="1" parent="1">
          <mxGeometry x="880" y="-1110" width="130" height="510" as="geometry" />
        </mxCell>
        <mxCell id="oLDCRv-mCkKeXU4i5kK5-25" value="Elasticsearch Service" style="sketch=0;outlineConnect=0;fontColor=#232F3E;gradientColor=none;strokeColor=#ffffff;fillColor=#232F3E;dashed=0;verticalLabelPosition=middle;verticalAlign=bottom;align=center;html=1;whiteSpace=wrap;fontSize=10;fontStyle=1;spacing=3;shape=mxgraph.aws4.productIcon;prIcon=mxgraph.aws4.elasticsearch_service;" vertex="1" parent="oLDCRv-mCkKeXU4i5kK5-24">
          <mxGeometry x="45" y="26" width="40" height="74" as="geometry" />
        </mxCell>
        <mxCell id="oLDCRv-mCkKeXU4i5kK5-27" value="&lt;br/&gt;&lt;span data-whi-docs=&quot;[[:p &amp;quot;Database per service&amp;quot;]]&quot;&gt;&lt;/span&gt;&amp;nbsp;Database per service" style="text;html=1;strokeColor=none;fillColor=none;align=center;verticalAlign=middle;whiteSpace=wrap;rounded=0;" vertex="1" parent="1">
          <mxGeometry x="880" y="-1169" width="130" height="20" as="geometry" />
        </mxCell>
        <mxCell id="oLDCRv-mCkKeXU4i5kK5-29" value="&lt;br&gt;&lt;span data-whi-docs=&quot;[[:p &amp;quot;Monitoring&amp;quot;]]&quot;&gt;&lt;/span&gt;&amp;nbsp;Monitoring and Alert" style="text;html=1;strokeColor=none;fillColor=none;align=center;verticalAlign=middle;whiteSpace=wrap;rounded=0;" vertex="1" parent="1">
          <mxGeometry x="1140" y="-700" width="60" height="30" as="geometry" />
        </mxCell>
        <mxCell id="oLDCRv-mCkKeXU4i5kK5-32" style="edgeStyle=none;rounded=0;orthogonalLoop=1;jettySize=auto;html=1;entryX=-0.015;entryY=0.454;entryDx=0;entryDy=0;entryPerimeter=0;" edge="1" parent="1" source="oLDCRv-mCkKeXU4i5kK5-30" target="oLDCRv-mCkKeXU4i5kK5-31">
          <mxGeometry relative="1" as="geometry" />
        </mxCell>
        <mxCell id="oLDCRv-mCkKeXU4i5kK5-59" style="edgeStyle=none;rounded=0;orthogonalLoop=1;jettySize=auto;html=1;" edge="1" parent="1" source="oLDCRv-mCkKeXU4i5kK5-30">
          <mxGeometry relative="1" as="geometry">
            <mxPoint x="1020" y="-718" as="targetPoint" />
          </mxGeometry>
        </mxCell>
        <mxCell id="oLDCRv-mCkKeXU4i5kK5-30" value="" style="aspect=fixed;html=1;points=[];align=center;image;fontSize=12;image=img/lib/azure2/management_governance/Monitor.svg;" vertex="1" parent="1">
          <mxGeometry x="1140" y="-750" width="64" height="64" as="geometry" />
        </mxCell>
        <mxCell id="oLDCRv-mCkKeXU4i5kK5-31" value="Dashboard for Ops and Dev&amp;nbsp;" style="aspect=fixed;html=1;points=[];align=center;image;fontSize=12;image=img/lib/azure2/other/Azure_Monitor_Dashboard.svg;" vertex="1" parent="1">
          <mxGeometry x="1410" y="-749.2" width="68" height="63.2" as="geometry" />
        </mxCell>
        <mxCell id="oLDCRv-mCkKeXU4i5kK5-33" value="&lt;br/&gt;&lt;span data-whi-docs=&quot;[[:p &amp;quot;monitoring service keeps consuming and notifies if there’s&amp;quot;]]&quot;&gt;&lt;/span&gt;&amp;nbsp;monitoring service keeps consuming and notifies if there’s" style="text;html=1;strokeColor=none;fillColor=none;align=center;verticalAlign=middle;whiteSpace=wrap;rounded=0;" vertex="1" parent="1">
          <mxGeometry x="1080" y="-590" width="220" height="30" as="geometry" />
        </mxCell>
        <mxCell id="oLDCRv-mCkKeXU4i5kK5-34" value="&lt;br&gt;&lt;span data-whi-docs=&quot;[[:p &amp;quot;There are many events being published on the stream&amp;quot;] [:p &amp;quot;but only some of them are notifications. these also need&amp;quot;] [:p &amp;quot;to be processed and formatted for the front end to be able to&amp;quot;] [:p &amp;quot;consume them.&amp;quot;]]&quot;&gt;&lt;/span&gt;&lt;br&gt;&lt;p&gt;There are many events being published on the stream&lt;/p&gt;&lt;p&gt;but only some of them are notifications. these also need&lt;/p&gt;&lt;p&gt;to be processed and formatted for the front end to be able to&lt;/p&gt;&lt;p&gt;consume them.(ETL)&lt;/p&gt;" style="text;html=1;strokeColor=none;fillColor=none;align=center;verticalAlign=middle;whiteSpace=wrap;rounded=0;" vertex="1" parent="1">
          <mxGeometry x="730" y="-490" width="490" height="120" as="geometry" />
        </mxCell>
        <mxCell id="oLDCRv-mCkKeXU4i5kK5-38" style="edgeStyle=none;rounded=0;orthogonalLoop=1;jettySize=auto;html=1;entryX=0;entryY=0.5;entryDx=0;entryDy=0;entryPerimeter=0;" edge="1" parent="1" target="oLDCRv-mCkKeXU4i5kK5-41">
          <mxGeometry relative="1" as="geometry">
            <mxPoint x="591" y="-797.1111111111111" as="sourcePoint" />
          </mxGeometry>
        </mxCell>
        <mxCell id="oLDCRv-mCkKeXU4i5kK5-39" style="edgeStyle=none;rounded=0;orthogonalLoop=1;jettySize=auto;html=1;" edge="1" parent="1" target="oLDCRv-mCkKeXU4i5kK5-44">
          <mxGeometry relative="1" as="geometry">
            <mxPoint x="591" y="-770.9185113111164" as="sourcePoint" />
          </mxGeometry>
        </mxCell>
        <mxCell id="oLDCRv-mCkKeXU4i5kK5-40" value="" style="edgeStyle=none;rounded=0;orthogonalLoop=1;jettySize=auto;html=1;" edge="1" parent="1" source="oLDCRv-mCkKeXU4i5kK5-41" target="oLDCRv-mCkKeXU4i5kK5-42">
          <mxGeometry relative="1" as="geometry" />
        </mxCell>
        <mxCell id="oLDCRv-mCkKeXU4i5kK5-41" value="" style="shape=cylinder3;whiteSpace=wrap;html=1;boundedLbl=1;backgroundOutline=1;size=5;" vertex="1" parent="1">
          <mxGeometry x="671" y="-826" width="30" height="40" as="geometry" />
        </mxCell>
        <mxCell id="oLDCRv-mCkKeXU4i5kK5-42" value="" style="shape=cylinder3;whiteSpace=wrap;html=1;boundedLbl=1;backgroundOutline=1;size=5;" vertex="1" parent="1">
          <mxGeometry x="781" y="-826" width="30" height="40" as="geometry" />
        </mxCell>
        <mxCell id="oLDCRv-mCkKeXU4i5kK5-43" style="edgeStyle=none;rounded=0;orthogonalLoop=1;jettySize=auto;html=1;entryX=-0.008;entryY=0.157;entryDx=0;entryDy=0;entryPerimeter=0;" edge="1" parent="1" source="oLDCRv-mCkKeXU4i5kK5-44">
          <mxGeometry relative="1" as="geometry">
            <mxPoint x="879.96" y="-755.9300000000001" as="targetPoint" />
          </mxGeometry>
        </mxCell>
        <mxCell id="oLDCRv-mCkKeXU4i5kK5-44" value="" style="sketch=0;outlineConnect=0;fontColor=#232F3E;gradientColor=none;fillColor=#B0084D;strokeColor=none;dashed=0;verticalLabelPosition=bottom;verticalAlign=top;align=center;html=1;fontSize=12;fontStyle=0;aspect=fixed;pointerEvents=1;shape=mxgraph.aws4.logs;" vertex="1" parent="1">
          <mxGeometry x="671" y="-774" width="51.1" height="38" as="geometry" />
        </mxCell>
        <mxCell id="oLDCRv-mCkKeXU4i5kK5-45" style="edgeStyle=none;rounded=0;orthogonalLoop=1;jettySize=auto;html=1;entryX=0;entryY=0.5;entryDx=0;entryDy=0;entryPerimeter=0;" edge="1" parent="1" target="oLDCRv-mCkKeXU4i5kK5-48">
          <mxGeometry relative="1" as="geometry">
            <mxPoint x="591" y="-662.1111111111113" as="sourcePoint" />
          </mxGeometry>
        </mxCell>
        <mxCell id="oLDCRv-mCkKeXU4i5kK5-46" style="edgeStyle=none;rounded=0;orthogonalLoop=1;jettySize=auto;html=1;" edge="1" parent="1" target="oLDCRv-mCkKeXU4i5kK5-51">
          <mxGeometry relative="1" as="geometry">
            <mxPoint x="591" y="-635.9185113111162" as="sourcePoint" />
          </mxGeometry>
        </mxCell>
        <mxCell id="oLDCRv-mCkKeXU4i5kK5-47" value="" style="edgeStyle=none;rounded=0;orthogonalLoop=1;jettySize=auto;html=1;" edge="1" parent="1" source="oLDCRv-mCkKeXU4i5kK5-48" target="oLDCRv-mCkKeXU4i5kK5-49">
          <mxGeometry relative="1" as="geometry" />
        </mxCell>
        <mxCell id="oLDCRv-mCkKeXU4i5kK5-48" value="" style="shape=cylinder3;whiteSpace=wrap;html=1;boundedLbl=1;backgroundOutline=1;size=5;" vertex="1" parent="1">
          <mxGeometry x="671" y="-691" width="30" height="40" as="geometry" />
        </mxCell>
        <mxCell id="oLDCRv-mCkKeXU4i5kK5-49" value="" style="shape=cylinder3;whiteSpace=wrap;html=1;boundedLbl=1;backgroundOutline=1;size=5;" vertex="1" parent="1">
          <mxGeometry x="781" y="-691" width="30" height="40" as="geometry" />
        </mxCell>
        <mxCell id="oLDCRv-mCkKeXU4i5kK5-50" style="edgeStyle=none;rounded=0;orthogonalLoop=1;jettySize=auto;html=1;entryX=-0.008;entryY=0.157;entryDx=0;entryDy=0;entryPerimeter=0;" edge="1" parent="1" source="oLDCRv-mCkKeXU4i5kK5-51">
          <mxGeometry relative="1" as="geometry">
            <mxPoint x="879.96" y="-620.9300000000003" as="targetPoint" />
          </mxGeometry>
        </mxCell>
        <mxCell id="oLDCRv-mCkKeXU4i5kK5-51" value="" style="sketch=0;outlineConnect=0;fontColor=#232F3E;gradientColor=none;fillColor=#B0084D;strokeColor=none;dashed=0;verticalLabelPosition=bottom;verticalAlign=top;align=center;html=1;fontSize=12;fontStyle=0;aspect=fixed;pointerEvents=1;shape=mxgraph.aws4.logs;" vertex="1" parent="1">
          <mxGeometry x="671" y="-639" width="51.1" height="38" as="geometry" />
        </mxCell>
        <mxCell id="oLDCRv-mCkKeXU4i5kK5-52" style="edgeStyle=none;rounded=0;orthogonalLoop=1;jettySize=auto;html=1;entryX=0;entryY=0.5;entryDx=0;entryDy=0;entryPerimeter=0;" edge="1" parent="1" target="oLDCRv-mCkKeXU4i5kK5-55">
          <mxGeometry relative="1" as="geometry">
            <mxPoint x="590" y="-939.1111111111113" as="sourcePoint" />
          </mxGeometry>
        </mxCell>
        <mxCell id="oLDCRv-mCkKeXU4i5kK5-53" style="edgeStyle=none;rounded=0;orthogonalLoop=1;jettySize=auto;html=1;" edge="1" parent="1" target="oLDCRv-mCkKeXU4i5kK5-58">
          <mxGeometry relative="1" as="geometry">
            <mxPoint x="590" y="-912.9185113111162" as="sourcePoint" />
          </mxGeometry>
        </mxCell>
        <mxCell id="oLDCRv-mCkKeXU4i5kK5-54" value="" style="edgeStyle=none;rounded=0;orthogonalLoop=1;jettySize=auto;html=1;" edge="1" parent="1" source="oLDCRv-mCkKeXU4i5kK5-55" target="oLDCRv-mCkKeXU4i5kK5-56">
          <mxGeometry relative="1" as="geometry" />
        </mxCell>
        <mxCell id="oLDCRv-mCkKeXU4i5kK5-55" value="" style="shape=cylinder3;whiteSpace=wrap;html=1;boundedLbl=1;backgroundOutline=1;size=5;" vertex="1" parent="1">
          <mxGeometry x="670" y="-968" width="30" height="40" as="geometry" />
        </mxCell>
        <mxCell id="oLDCRv-mCkKeXU4i5kK5-56" value="" style="shape=cylinder3;whiteSpace=wrap;html=1;boundedLbl=1;backgroundOutline=1;size=5;" vertex="1" parent="1">
          <mxGeometry x="780" y="-968" width="30" height="40" as="geometry" />
        </mxCell>
        <mxCell id="oLDCRv-mCkKeXU4i5kK5-57" style="edgeStyle=none;rounded=0;orthogonalLoop=1;jettySize=auto;html=1;entryX=-0.008;entryY=0.157;entryDx=0;entryDy=0;entryPerimeter=0;" edge="1" parent="1" source="oLDCRv-mCkKeXU4i5kK5-58">
          <mxGeometry relative="1" as="geometry">
            <mxPoint x="878.96" y="-897.9300000000003" as="targetPoint" />
          </mxGeometry>
        </mxCell>
        <mxCell id="oLDCRv-mCkKeXU4i5kK5-58" value="" style="sketch=0;outlineConnect=0;fontColor=#232F3E;gradientColor=none;fillColor=#B0084D;strokeColor=none;dashed=0;verticalLabelPosition=bottom;verticalAlign=top;align=center;html=1;fontSize=12;fontStyle=0;aspect=fixed;pointerEvents=1;shape=mxgraph.aws4.logs;" vertex="1" parent="1">
          <mxGeometry x="670" y="-916" width="51.1" height="38" as="geometry" />
        </mxCell>
      </root>
    </mxGraphModel>
  </diagram>
</mxfile>
